<svg width="247" height="50" viewBox="0 0 247 50" fill="none" xmlns="http://www.w3.org/2000/svg">
<path fill-rule="evenodd" clip-rule="evenodd" d="M101.87 16.5407C101.87 16.5407 101.87 26.243 101.869 29.0175C101.869 29.3001 101.535 29.4461 101.325 29.2582L92.9567 21.6643H92.9552L84.5865 29.2582C84.3769 29.4476 84.0431 29.3001 84.0431 29.0175C84.0431 26.243 84.0416 16.5407 84.0416 16.5407H78.8496V34.4641H87.3145L92.9552 29.3451H92.9598L98.6005 34.4641H107.064V16.5407H101.872H101.87Z" fill="#161616"/>
<path fill-rule="evenodd" clip-rule="evenodd" d="M135.274 16.5408V28.8639C135.274 29.089 135.091 29.2707 134.866 29.2707H118.258C118.033 29.2707 117.851 29.0875 117.851 28.8639V16.5408H112.662V30.6416L116.478 34.4549H136.647L140.463 30.6401V16.5392H135.276L135.274 16.5408Z" fill="#161616"/>
<path fill-rule="evenodd" clip-rule="evenodd" d="M151.248 28.8639V16.5408H146.062V30.6416L149.876 34.4549H168.669V29.2707H151.655C151.43 29.2707 151.248 29.0875 151.248 28.8623" fill="#161616"/>
<path fill-rule="evenodd" clip-rule="evenodd" d="M174.265 34.4642V16.5345H179.458V34.4642H174.265Z" fill="#161616"/>
<path fill-rule="evenodd" clip-rule="evenodd" d="M207.661 16.5345V27.6699C207.661 27.8966 207.411 28.0317 207.223 27.9044L190.245 16.533H185.058V34.4626H190.245V23.3257C190.245 23.1006 190.496 22.9655 190.683 23.0912L207.661 34.4626H212.846V16.533H207.661V16.5345Z" fill="#161616"/>
<path fill-rule="evenodd" clip-rule="evenodd" d="M237.486 25.4978V27.3858L240.834 28.6046C241.197 28.7366 241.103 29.2738 240.716 29.2738H224.042C223.819 29.2738 223.636 29.0921 223.636 28.867V21.3523C223.636 21.1272 223.819 20.944 224.042 20.944H246.249V16.533H222.263L218.448 20.3493V30.6447L222.263 34.4611H246.249V25.4978H237.486Z" fill="#161616"/>
<path d="M43.9035 31.449L36.9835 19.0312C36.8018 18.7067 36.3345 18.7067 36.1544 19.0312L29.2344 31.449C29.1536 31.5918 29.1536 31.7673 29.2344 31.9117L36.1544 44.3404C36.3345 44.6649 36.8018 44.6649 36.9835 44.3404L43.9035 31.9117C43.9827 31.7673 43.9827 31.5934 43.9035 31.449Z" fill="#161616"/>
<path d="M28.86 31.095L16.585 9.14253C15.5882 7.35857 13.7002 6.25 11.6554 6.25H0.364772C0.0868531 6.25 -0.0885928 6.54966 0.046485 6.79186L6.38894 18.1927C6.46967 18.3371 6.62183 18.4272 6.78641 18.4272H18.7804C18.9527 18.4272 19.1158 18.5141 19.2089 18.6601L19.5489 19.2439C19.611 19.3401 19.5427 19.4674 19.4263 19.4674H7.3438C7.23356 19.4674 7.16214 19.587 7.21648 19.6833L12.5497 29.2676C13.3695 30.7348 14.9175 31.6446 16.599 31.6446H28.5371C28.8196 31.6446 28.9966 31.3419 28.86 31.095Z" fill="#161616"/>
<path d="M44.2776 31.095L56.5511 9.14253C57.5478 7.35857 59.4358 6.25 61.4806 6.25H72.7728C73.0507 6.25 73.2262 6.54966 73.0911 6.79186L66.7487 18.1927C66.6679 18.3371 66.5158 18.4272 66.3512 18.4272H54.3572C54.1833 18.4272 54.0218 18.5141 53.9287 18.6601L53.5887 19.2439C53.5266 19.3401 53.5949 19.4674 53.7098 19.4674H65.7954C65.9071 19.4674 65.977 19.587 65.9227 19.6833L60.5894 29.2676C59.7696 30.7348 58.2217 31.6446 56.5402 31.6446H44.6021C44.3195 31.6446 44.141 31.3419 44.2792 31.095H44.2776Z" fill="#161616"/>
</svg>
